<svg width="13" height="24" viewBox="0 0 13 24" fill="none" xmlns="http://www.w3.org/2000/svg">
<rect x="0.5" y="0.160034" width="12" height="23" fill="#EFDC05"/>
<path d="M3.2 1.34003H5.28V7.59003H9.09V9.31003H3.2V1.34003ZM3.2 13.34H7.67C8.01 13.34 8.34 13.39 8.65 13.48C8.95 13.58 9.21 13.72 9.43 13.9C9.65 14.1 9.82 14.34 9.95 14.64C10.07 14.94 10.14 15.3 10.14 15.7C10.14 16.1 10.09 16.44 9.99 16.72C9.89 17.01 9.74 17.25 9.54 17.44C9.34 17.64 9.09 17.81 8.8 17.93C8.5 18.07 8.15 18.18 7.77 18.26L5.28 18.81V21.31H3.2V13.34ZM8.07 15.75C8.07 15.57 8.01 15.4 7.89 15.26C7.76 15.13 7.59 15.06 7.39 15.06H5.28V16.99L7.18 16.64C7.52 16.58 7.75 16.47 7.88 16.31C8 16.15 8.07 15.97 8.07 15.75Z" fill="#222222"/>
</svg>
